<svg xmlns="http://www.w3.org/2000/svg" width="24" height="24" fill="none" viewBox="0 0 24 24" aria-hidden="true">
  <path fill="currentColor" d="M13.94 2.5a1.5 1.5 0 0 0-3.88 0l-.24.95a1.5 1.5 0 0 1-1.99 1.06l-.9-.33a1.5 1.5 0 0 0-1.9.87l-.7 1.83a1.5 1.5 0 0 0 .7 1.83l.86.5a1.5 1.5 0 0 1 0 2.58l-.86.5a1.5 1.5 0 0 0-.7 1.83l.7 1.83a1.5 1.5 0 0 0 1.9.87l.9-.33a1.5 1.5 0 0 1 1.99 1.06l.24.95a1.5 1.5 0 0 0 3.88 0l.24-.95a1.5 1.5 0 0 1 1.99-1.06l.9.33a1.5 1.5 0 0 0 1.9-.87l.7-1.83a1.5 1.5 0 0 0-.7-1.83l-.86-.5a1.5 1.5 0 0 1 0-2.58l.86-.5a1.5 1.5 0 0 0 .7-1.83l-.7-1.83a1.5 1.5 0 0 0-1.9-.87l-.9.33a1.5 1.5 0 0 1-1.99-1.06l-.24-.95ZM12 9.25a2.75 2.75 0 1 1 0 5.5a2.75 2.75 0 0 1 0-5.5Z"/>
</svg>
